<svg aria-hidden="true" style="position: absolute; width: 0; height: 0; overflow: hidden;" version="1.1"
    xmlns="http://www.w3.org/2000/svg" xmlns:xlink="http://www.w3.org/1999/xlink">
    <defs>
        <symbol id="telegram" viewBox="0 0 32 32">
            <path
                d="M21.9453125,2.7646484c-0.4393311-0.3643188-1.0431519-0.4580688-1.5722656-0.2441406L2.4560547,9.7539062c-0.788147,0.3244019-1.1640625,1.2263184-0.8396606,2.0144043c0.1677856,0.4075928,0.50177,0.723938,0.9177856,0.8693848l3.8652344,1.34375l2.0947266,6.9257812c0.0042114,0.0140991,0.0171509,0.0227051,0.022583,0.0362549c0.0216675,0.0552368,0.0533447,0.1060791,0.0933228,0.1499023c0.0148926,0.0176392,0.0311279,0.0341797,0.0484619,0.0494385c0.0521851,0.043335,0.112793,0.0753784,0.1779785,0.0940552c0.0099487,0.0029297,0.0166016,0.0117798,0.0267334,0.0140991l0.0058594-0.0002441l0.0029297,0.0012207c0.0333862,0.0074463,0.0674438,0.0110474,0.1015625,0.0107422c0.0446167-0.0015869,0.0888672-0.0092773,0.1313477-0.0228882c0.0082397-0.0022583,0.0165405-0.0016479,0.0245972-0.0043335c0.0725708-0.0255737,0.1381226-0.067627,0.1915283-0.1229248c0.0062256-0.0062256,0.015686-0.0073242,0.0216675-0.013916l3.0136719-3.3251953l4.3964844,3.4042969C17.0200195,21.3865967,17.3493652,21.500061,17.6884155,21.5c0.7333984-0.0001221,1.3664551-0.513855,1.5175781-1.2314453L22.46875,4.2509766C22.5817871,3.6968994,22.3805542,3.1256104,21.9453125,2.7646484z M9.5878906,15.2949219l-0.7072144,3.4367676l-1.4748535-4.8778076l7.3148804-3.809021l-4.9970703,4.9971313C9.654541,15.111145,9.6073608,15.1990967,9.5878906,15.2949219z M18.2265625,20.0673828c-0.0383301,0.184082-0.1696777,0.335022-0.3466797,0.3984375c-0.1729736,0.0665283-0.3682861,0.0368652-0.5136719-0.078125l-4.7636719-3.6884766c-0.2062378-0.159668-0.5006104-0.133728-0.6757812,0.0595703l-2.0956421,2.3121948l0.7059937-3.4274292l7.1884766-7.1894531c0.1953735-0.1950073,0.1956787-0.5114136,0.0006714-0.7067261c-0.1542358-0.1546021-0.3909912-0.1911011-0.5846558-0.0901489L6.7782593,13.053894l-3.9169312-1.3615112C2.6478271,11.6221313,2.5026245,11.4239502,2.5,11.1992188c-0.0103149-0.2263184,0.1236572-0.4343872,0.3339844-0.5185547l17.9140625-7.2324219c0.1871338-0.0794067,0.4030762-0.0461426,0.5576172,0.0859375c0.1538086,0.1241455,0.2244873,0.3244019,0.1826172,0.5175781L18.2265625,20.0673828z">
            </path>
        </symbol>
        <symbol id="instagram" viewBox="0 0 32 32">
            <path
                d="M16 2.881c4.275 0 4.781 0.019 6.462 0.094 1.563 0.069 2.406 0.331 2.969 0.55 0.744 0.288 1.281 0.638 1.837 1.194 0.563 0.563 0.906 1.094 1.2 1.838 0.219 0.563 0.481 1.412 0.55 2.969 0.075 1.688 0.094 2.194 0.094 6.463s-0.019 4.781-0.094 6.463c-0.069 1.563-0.331 2.406-0.55 2.969-0.288 0.744-0.637 1.281-1.194 1.837-0.563 0.563-1.094 0.906-1.837 1.2-0.563 0.219-1.413 0.481-2.969 0.55-1.688 0.075-2.194 0.094-6.463 0.094s-4.781-0.019-6.463-0.094c-1.563-0.069-2.406-0.331-2.969-0.55-0.744-0.288-1.281-0.637-1.838-1.194-0.563-0.563-0.906-1.094-1.2-1.837-0.219-0.563-0.481-1.413-0.55-2.969-0.075-1.688-0.094-2.194-0.094-6.463s0.019-4.781 0.094-6.463c0.069-1.563 0.331-2.406 0.55-2.969 0.288-0.744 0.638-1.281 1.194-1.838 0.563-0.563 1.094-0.906 1.838-1.2 0.563-0.219 1.412-0.481 2.969-0.55 1.681-0.075 2.188-0.094 6.463-0.094zM16 0c-4.344 0-4.887 0.019-6.594 0.094-1.7 0.075-2.869 0.35-3.881 0.744-1.056 0.412-1.95 0.956-2.837 1.85-0.894 0.888-1.438 1.781-1.85 2.831-0.394 1.019-0.669 2.181-0.744 3.881-0.075 1.713-0.094 2.256-0.094 6.6s0.019 4.887 0.094 6.594c0.075 1.7 0.35 2.869 0.744 3.881 0.413 1.056 0.956 1.95 1.85 2.837 0.887 0.887 1.781 1.438 2.831 1.844 1.019 0.394 2.181 0.669 3.881 0.744 1.706 0.075 2.25 0.094 6.594 0.094s4.888-0.019 6.594-0.094c1.7-0.075 2.869-0.35 3.881-0.744 1.050-0.406 1.944-0.956 2.831-1.844s1.438-1.781 1.844-2.831c0.394-1.019 0.669-2.181 0.744-3.881 0.075-1.706 0.094-2.25 0.094-6.594s-0.019-4.887-0.094-6.594c-0.075-1.7-0.35-2.869-0.744-3.881-0.394-1.063-0.938-1.956-1.831-2.844-0.887-0.887-1.781-1.438-2.831-1.844-1.019-0.394-2.181-0.669-3.881-0.744-1.712-0.081-2.256-0.1-6.6-0.1v0z">
            </path>
            <path
                d="M16 7.781c-4.537 0-8.219 3.681-8.219 8.219s3.681 8.219 8.219 8.219 8.219-3.681 8.219-8.219c0-4.537-3.681-8.219-8.219-8.219zM16 21.331c-2.944 0-5.331-2.387-5.331-5.331s2.387-5.331 5.331-5.331c2.944 0 5.331 2.387 5.331 5.331s-2.387 5.331-5.331 5.331z">
            </path>
            <path
                d="M26.462 7.456c0 1.060-0.859 1.919-1.919 1.919s-1.919-0.859-1.919-1.919c0-1.060 0.859-1.919 1.919-1.919s1.919 0.859 1.919 1.919z">
            </path>
        </symbol>
        <symbol id="twitter" viewBox="0 0 32 32">
            <path
                d="M32 7.075c-1.175 0.525-2.444 0.875-3.769 1.031 1.356-0.813 2.394-2.1 2.887-3.631-1.269 0.75-2.675 1.3-4.169 1.594-1.2-1.275-2.906-2.069-4.794-2.069-3.625 0-6.563 2.938-6.563 6.563 0 0.512 0.056 1.012 0.169 1.494-5.456-0.275-10.294-2.888-13.531-6.862-0.563 0.969-0.887 2.1-0.887 3.3 0 2.275 1.156 4.287 2.919 5.463-1.075-0.031-2.087-0.331-2.975-0.819 0 0.025 0 0.056 0 0.081 0 3.181 2.263 5.838 5.269 6.437-0.55 0.15-1.131 0.231-1.731 0.231-0.425 0-0.831-0.044-1.237-0.119 0.838 2.606 3.263 4.506 6.131 4.563-2.25 1.762-5.075 2.813-8.156 2.813-0.531 0-1.050-0.031-1.569-0.094 2.913 1.869 6.362 2.95 10.069 2.95 12.075 0 18.681-10.006 18.681-18.681 0-0.287-0.006-0.569-0.019-0.85 1.281-0.919 2.394-2.075 3.275-3.394z">
            </path>
        </symbol>
        <symbol id="linkedin" viewBox="0 0 32 32">
            <path
                d="M12 12h5.535v2.837h0.079c0.77-1.381 2.655-2.837 5.464-2.837 5.842 0 6.922 3.637 6.922 8.367v9.633h-5.769v-8.54c0-2.037-0.042-4.657-3.001-4.657-3.005 0-3.463 2.218-3.463 4.509v8.688h-5.767v-18z">
            </path>
            <path d="M2 12h6v18h-6v-18z"></path>
            <path d="M8 7c0 1.657-1.343 3-3 3s-3-1.343-3-3c0-1.657 1.343-3 3-3s3 1.343 3 3z"></path>
        </symbol>

        <!-- <symbol id="close" viewBox="0 0 32 32">
            <path
                d="M16 0c-8.837 0-16 7.163-16 16s7.163 16 16 16 16-7.163 16-16-7.163-16-16-16zM16 29c-7.18 0-13-5.82-13-13s5.82-13 13-13 13 5.82 13 13-5.82 13-13 13z">
            </path>
            <path d="M21 8l-5 5-5-5-3 3 5 5-5 5 3 3 5-5 5 5 3-3-5-5 5-5z"></path>
        </symbol> -->
        <symbol id="close" viewBox="0 0 20 20">
            <path
                d="M10 8.586l-7.071-7.071-1.414 1.414 7.071 7.071-7.071 7.071 1.414 1.414 7.071-7.071 7.071 7.071 1.414-1.414-7.071-7.071 7.071-7.071-1.414-1.414-7.071 7.071z">
            </path>
        </symbol>

        <symbol id="menu" viewBox="0 0 24 24">
            <path
                d="M3 13h18c0.552 0 1-0.448 1-1s-0.448-1-1-1h-18c-0.552 0-1 0.448-1 1s0.448 1 1 1zM3 7h18c0.552 0 1-0.448 1-1s-0.448-1-1-1h-18c-0.552 0-1 0.448-1 1s0.448 1 1 1zM3 19h18c0.552 0 1-0.448 1-1s-0.448-1-1-1h-18c-0.552 0-1 0.448-1 1s0.448 1 1 1z">
            </path>
        </symbol>


    </defs>
</svg>