<?xml version="1.0" encoding="UTF-8"?>
<svg id="_Шар_2" data-name="icon" xmlns="http://www.w3.org/2000/svg" viewBox="0 0 20.52 10.85">
  <defs>
    <style>
      .cls-1 {
        fill: #1d1d1b;
      }
    </style>
  </defs>
  <g id="_Шар_1-2" data-name="Шар 1">
    <g id="Icon">
      <g id="maze_icon" data-name="maze icon">
        <polygon class="cls-1" points="11.76 1.25 11.76 1.46 11.76 1.46 11.76 2.04 11.54 2.04 11.54 1.46 7.7 1.46 7.7 1.25 7.7 1.25 7.7 .8 7.26 .8 7.26 5.22 7.04 5.22 7.04 .66 7.88 .66 7.88 1.25 11.76 1.25"/>
        <polygon class="cls-1" points="12.36 3.12 12.36 5.22 12.21 5.22 12.21 3.34 11.77 3.34 11.77 5.22 10.26 5.22 10.26 4.99 11.54 4.99 11.54 3.12 12.36 3.12"/>
        <polygon class="cls-1" points="9.14 5.02 9.14 5.22 7.65 5.22 7.65 2.53 8.55 2.53 8.55 4.6 8.34 4.6 8.34 2.74 7.85 2.74 7.85 5.02 9.14 5.02"/>
        <polygon class="cls-1" points="10.5 2.53 10.5 2.68 9.2 2.68 9.2 4.57 8.99 4.57 8.99 2.53 10.5 2.53"/>
        <polygon class="cls-1" points="11.09 1.89 11.09 4.57 9.82 4.57 9.82 5.22 9.6 5.22 9.6 4.57 9.6 4.57 9.6 4.35 10.94 4.35 10.94 2.1 7.65 2.1 7.65 1.89 11.09 1.89"/>
        <polygon class="cls-1" points="10.47 3.12 10.47 3.98 9.59 3.98 9.59 3.76 10.25 3.76 10.25 3.34 9.59 3.34 9.59 3.12 10.47 3.12"/>
        <rect class="cls-1" x="8.3" y=".66" width="3.46" height=".14"/>
        <polygon class="cls-1" points="12.36 0 12.36 2.68 11.54 2.68 11.54 2.53 12.21 2.53 12.21 .22 7.07 .22 7.07 0 12.36 0"/>
      </g>
      <g id="Mze_icon" data-name="Mze icon">
        <g id="Z">
          <rect class="cls-1" x="10.7" y="6.24" width="4.53" height=".38"/>
          <rect class="cls-1" x="10.7" y="7.11" width="3.68" height=".38"/>
          <rect class="cls-1" x="10.7" y="7.96" width="2.95" height=".38"/>
          <rect class="cls-1" x="12.28" y="8.71" width="2.95" height=".38"/>
          <rect class="cls-1" x="11.55" y="9.58" width="3.68" height=".38"/>
          <rect class="cls-1" x="10.71" y="10.44" width="4.53" height=".38"/>
        </g>
        <g id="M">
          <polygon class="cls-1" points="3.9 6.97 3.9 10.84 3.41 10.84 3.41 7.46 3.05 7.46 3.05 10.84 2.56 10.84 2.56 6.97 3.9 6.97"/>
          <polygon class="cls-1" points="4.68 6.2 4.68 10.85 4.19 10.85 4.19 6.69 .49 6.69 .49 10.85 0 10.85 0 6.2 4.68 6.2"/>
          <polygon class="cls-1" points="2.2 6.97 2.2 10.84 1.71 10.84 1.71 7.46 1.36 7.46 1.36 10.84 .87 10.84 .87 6.97 2.2 6.97"/>
        </g>
        <g id="A">
          <polygon class="cls-1" points="10.11 6.18 10.13 10.83 9.63 10.83 9.62 6.67 5.92 6.68 5.93 10.84 5.44 10.84 5.43 6.2 10.11 6.18"/>
          <polygon class="cls-1" points="9.26 7.06 9.27 10.83 8.78 10.83 8.77 7.56 6.8 7.57 6.81 10.84 6.31 10.84 6.3 7.07 9.26 7.06"/>
          <path class="cls-1" d="m7.16,7.95v1.22s1.36,0,1.36,0v-1.22s-1.36,0-1.36,0Zm.86.85h-.36s0-.48,0-.48h.36s0,.48,0,.48Z"/>
          <polygon class="cls-1" points="8.52 9.53 8.53 10.84 8.03 10.84 8.03 10 7.66 10.01 7.67 10.84 7.17 10.84 7.17 9.54 8.52 9.53"/>
        </g>
        <g id="M-2" data-name="M">
          <polygon class="cls-1" points="16.65 6.96 20.51 6.96 20.51 7.45 17.13 7.45 17.13 7.8 20.51 7.8 20.51 8.29 16.65 8.29 16.65 6.96"/>
          <polygon class="cls-1" points="15.88 6.17 20.52 6.17 20.52 6.66 16.37 6.66 16.37 10.36 20.52 10.36 20.52 10.85 15.88 10.85 15.88 6.17"/>
          <polygon class="cls-1" points="16.65 8.65 20.51 8.65 20.51 9.14 17.13 9.14 17.13 9.5 20.51 9.5 20.51 9.99 16.65 9.99 16.65 8.65"/>
        </g>
      </g>
    </g>
  </g>
</svg>